HIERARCHY
ROOT Hips
{
 OFFSET 0.000000 0.000000 0.000000
 CHANNELS 6 Xposition Yposition Zposition Yrotation Xrotation Zrotation
 JOINT Chest
 {
  OFFSET 0.000000 9.585900 0.002600
  CHANNELS 3 Yrotation Xrotation Zrotation
  JOINT Chest2
  {
   OFFSET 0.000000 9.601200 -0.005300
   CHANNELS 3 Yrotation Xrotation Zrotation
   JOINT Chest3
   {
    OFFSET 0.000000 9.561800 0.000000
    CHANNELS 3 Yrotation Xrotation Zrotation
    JOINT Chest4
    {
     OFFSET 0.000000 9.552100 0.000000
     CHANNELS 3 Yrotation Xrotation Zrotation
     JOINT Neck
     {
      OFFSET 0.000000 14.453000 0.000000
      CHANNELS 3 Yrotation Xrotation Zrotation
      JOINT Head
      {
       OFFSET 0.000000 8.936500 -0.011300
       CHANNELS 3 Yrotation Xrotation Zrotation
       End Site
       {
        OFFSET 0.000000 17.073600 -0.006000
       }
      }
     }
     JOINT RightCollar
     {
      OFFSET -2.921100 9.558500 0.000000
      CHANNELS 3 Yrotation Xrotation Zrotation
      JOINT RightShoulder
      {
       OFFSET -13.519700 0.000000 0.000000
       CHANNELS 3 Yrotation Xrotation Zrotation
       JOINT RightElbow
       {
        OFFSET 0.000000 -29.696600 0.000000
        CHANNELS 3 Yrotation Xrotation Zrotation
        JOINT RightWrist
        {
         OFFSET 0.000000 -24.004700 0.000000
         CHANNELS 3 Yrotation Xrotation Zrotation
         End Site
         {
          OFFSET 0.000000 -17.728500 0.000000
         }
        }
       }
      }
     }
     JOINT LeftCollar
     {
      OFFSET 2.921100 9.558500 0.000000
      CHANNELS 3 Yrotation Xrotation Zrotation
      JOINT LeftShoulder
      {
       OFFSET 13.519700 0.000000 0.000000
       CHANNELS 3 Yrotation Xrotation Zrotation
       JOINT LeftElbow
       {
        OFFSET 0.000000 -29.696600 0.000000
        CHANNELS 3 Yrotation Xrotation Zrotation
        JOINT LeftWrist
        {
         OFFSET 0.000000 -24.004700 0.000000
         CHANNELS 3 Yrotation Xrotation Zrotation
         End Site
         {
          OFFSET 0.000000 -17.728500 0.000000
         }
        }
       }
      }
     }
    }
   }
  }
 }
 JOINT RightHip
 {
  OFFSET -7.771700 -0.012900 -0.001300
  CHANNELS 3 Yrotation Xrotation Zrotation
  JOINT RightKnee
  {
   OFFSET 0.000000 -40.869800 0.001200
   CHANNELS 3 Yrotation Xrotation Zrotation
   JOINT RightAnkle
   {
    OFFSET 0.000000 -39.717900 0.002100
    CHANNELS 3 Yrotation Xrotation Zrotation
    JOINT RightToe
    {
     OFFSET 0.000000 -4.965400 11.033500
     CHANNELS 3 Yrotation Xrotation Zrotation
     End Site
     {
      OFFSET 0.000000 -1.423100 5.872300
     }
    }
   }
  }
 }
 JOINT LeftHip
 {
  OFFSET 7.771700 -0.012900 -0.001300
  CHANNELS 3 Yrotation Xrotation Zrotation
  JOINT LeftKnee
  {
   OFFSET 0.000000 -40.869800 0.001200
   CHANNELS 3 Yrotation Xrotation Zrotation
   JOINT LeftAnkle
   {
    OFFSET 0.000000 -39.717900 0.002100
    CHANNELS 3 Yrotation Xrotation Zrotation
    JOINT LeftToe
    {
     OFFSET 0.000000 -4.965400 11.033500
     CHANNELS 3 Yrotation Xrotation Zrotation
     End Site
     {
      OFFSET 0.000000 -1.423100 5.872300
     }
    }
   }
  }
 }
}
MOTION
Frames: 15
Frame Time: 0.008333
-214.717299 57.660987 -71.093537 159.614317 -7.916278 0.482941 3.489546 7.137468 1.086986 0.163744 0.347016 0.010170 0.264660 0.592359 0.019971 3.129851 6.798057 0.390360 0.881620 17.872997 -0.961874 1.907942 -2.575043 -2.040976 -0.285086 5.543026 -2.382074 -3.375901 -8.298521 -8.861087 -62.339988 -86.898873 95.064480 -0.104175 11.268728 -26.347342 -1.985166 6.190746 2.284708 13.197128 -2.835807 3.472153 125.318494 -84.616208 -157.859099 -1.912774 7.241305 13.837795 -17.395034 -63.820631 8.950083 -31.447143 72.932005 -31.629400 -3.222634 -7.478753 -2.464226 -0.210896 0.706473 -0.096792 2.689907 -66.598178 14.443651 41.109190 65.619316 34.198412 -17.858054 -9.823704 4.036162 -0.248214 -0.908867 -0.113350
-214.714201 57.662620 -71.093363 159.611237 -7.918053 0.473491 3.515186 7.147103 1.096639 0.156766 0.342039 0.010465 0.256401 0.593686 0.022535 3.136526 6.796229 0.387933 0.884255 17.855077 -0.966438 1.917848 -2.641788 -2.064013 -0.297397 5.542932 -2.381126 -3.399018 -8.276269 -8.798887 -61.831986 -86.927476 94.555341 -0.122362 11.257324 -26.369725 -2.013092 6.205519 2.291972 13.173307 -2.841272 3.451762 125.310896 -84.626863 -157.860827 -1.915030 7.241598 13.839014 -17.411741 -63.815328 8.969664 -31.459653 72.931661 -31.634886 -3.212728 -7.471959 -2.462597 -0.202958 0.701139 -0.100953 2.666907 -66.594772 14.470159 41.105746 65.618648 34.194958 -17.840995 -9.825708 4.036200 -0.227825 -0.906755 -0.111521
-214.711684 57.663577 -71.092782 159.612554 -7.921153 0.469239 3.530296 7.150932 1.097658 0.157321 0.342500 0.010332 0.274985 0.598671 0.018733 3.152894 6.800045 0.384079 0.845872 17.838245 -0.949458 1.928936 -2.719115 -2.088089 -0.343417 5.548020 -2.374781 -3.395826 -8.271409 -8.753394 -61.272889 -86.933720 93.955347 -0.130225 11.240291 -26.385069 -2.073733 6.206271 2.311793 13.087833 -2.836805 3.432078 125.480957 -84.640842 -157.967731 -1.917432 7.243542 13.809683 -17.426065 -63.811637 8.980789 -31.468640 72.933972 -31.638172 -3.211014 -7.468449 -2.465822 -0.202284 0.695819 -0.102405 2.652139 -66.589984 14.482486 41.104487 65.614425 34.194479 -17.834501 -9.823698 4.033875 -0.205292 -0.906159 -0.106294
-214.712224 57.663719 -71.092125 159.618783 -7.922418 0.484245 3.529479 7.153046 1.079581 0.160456 0.342944 0.008702 0.278679 0.599084 0.017316 3.155830 6.803804 0.382828 0.852542 17.808824 -0.955849 1.923372 -2.797804 -2.095829 -0.352070 5.557361 -2.379741 -3.386402 -8.266612 -8.721545 -60.855943 -86.925566 93.497531 -0.141588 11.235315 -26.401500 -2.101209 6.210697 2.324625 13.062291 -2.840296 3.422335 125.473378 -84.644144 -157.973111 -1.925306 7.244274 13.802917 -17.408178 -63.816589 8.952858 -31.476381 72.936950 -31.643599 -3.218402 -7.474217 -2.468930 -0.195595 0.699396 -0.101242 2.678449 -66.587373 14.448755 41.096743 65.613091 34.189181 -17.880362 -9.811853 4.032645 -0.238580 -0.915593 -0.110819
-214.710570 57.663225 -71.091208 159.622559 -7.931710 0.489165 3.530521 7.162419 1.072355 0.165407 0.341328 0.006549 0.277387 0.600492 0.018488 3.152092 6.805721 0.384491 0.862554 17.775580 -0.970186 1.919606 -2.890994 -2.106008 -0.340017 5.584333 -2.403274 -3.382586 -8.274824 -8.680337 -60.172060 -86.911990 92.782270 -0.169695 11.249344 -26.438727 -2.108962 6.220454 2.330401 13.053083 -2.849362 3.415980 125.451292 -84.639994 -158.004716 -1.933361 7.248491 13.813060 -17.390348 -63.812578 8.926456 -31.477747 72.942934 -31.638518 -3.207536 -7.472399 -2.464968 -0.206870 0.696043 -0.108932 2.687445 -66.578202 14.437708 41.085819 65.612935 34.179999 -17.889598 -9.802952 4.035333 -0.236806 -0.920765 -0.113075
-214.707445 57.661629 -71.086646 159.635451 -7.928242 0.478623 3.529830 7.154862 1.077789 0.166038 0.341777 0.004123 0.268860 0.602883 0.024313 3.164723 6.810639 0.379912 0.861106 17.730203 -0.976983 1.914163 -2.993310 -2.122014 -0.349775 5.584604 -2.402442 -3.356790 -8.262813 -8.666431 -59.663912 -86.916862 92.250630 -0.173568 11.241341 -26.456667 -2.124408 6.223871 2.342049 13.002426 -2.851030 3.413366 125.547043 -84.628232 -158.098912 -1.942957 7.254748 13.804452 -17.420273 -63.814565 8.945309 -31.483718 72.945564 -31.637286 -3.196487 -7.474075 -2.465792 -0.217180 0.696592 -0.112116 2.663181 -66.585417 14.456458 41.074579 65.602213 34.178705 -17.922390 -9.786726 4.026212 -0.222727 -0.922859 -0.108821
-214.704934 57.659652 -71.083898 159.642205 -7.938060 0.476699 3.536727 7.159330 1.069691 0.161971 0.345486 0.008096 0.267601 0.603369 0.026536 3.172649 6.823486 0.376079 0.853457 17.672402 -0.980866 1.914340 -3.105205 -2.143472 -0.358351 5.576001 -2.398494 -3.327664 -8.250859 -8.658282 -59.275783 -86.928298 91.840215 -0.179624 11.235513 -26.471222 -2.145556 6.218260 2.354938 12.939817 -2.856778 3.417846 125.641701 -84.613425 -158.168908 -1.954902 7.258998 13.789290 -17.421556 -63.806292 8.938953 -31.509178 72.944073 -31.653001 -3.188604 -7.478729 -2.471601 -0.207136 0.700423 -0.107748 2.660661 -66.577915 14.458217 41.065226 65.598037 34.175861 -17.948261 -9.778828 4.024044 -0.192929 -0.915667 -0.103440
-214.701633 57.657338 -71.081728 159.645104 -7.956695 0.471263 3.536571 7.176954 1.074139 0.170080 0.346567 0.001812 0.266888 0.602890 0.026676 3.170497 6.827091 0.380145 0.861587 17.580767 -1.010903 1.906809 -3.187400 -2.145841 -0.338019 5.583409 -2.416582 -3.322024 -8.246003 -8.638727 -59.241903 -86.938402 91.780841 -0.187591 11.233909 -26.480480 -2.159934 6.221993 2.361449 12.922514 -2.866683 3.420061 125.742546 -84.598114 -158.287315 -1.964895 7.259714 13.776941 -17.436323 -63.789585 8.941053 -31.492696 72.954402 -31.630082 -3.179230 -7.479147 -2.475681 -0.218063 0.698304 -0.111491 2.650888 -66.561956 14.469182 41.060223 65.597270 34.173506 -17.927805 -9.779283 4.022996 -0.204362 -0.911989 -0.104609
-214.699016 57.654643 -71.079280 159.649994 -7.975776 0.466361 3.544224 7.194611 1.072956 0.167786 0.349457 0.001429 0.270603 0.603070 0.026933 3.176355 6.837563 0.379852 0.856704 17.514616 -1.023341 1.908061 -3.315885 -2.168532 -0.344578 5.572885 -2.413031 -3.298025 -8.238356 -8.644372 -59.372032 -86.935614 91.879272 -0.186508 11.239402 -26.480781 -2.181091 6.213871 2.372558 12.906619 -2.876206 3.425265 125.758247 -84.590246 -158.304718 -1.974764 7.252537 13.758572 -17.451070 -63.770518 8.943732 -31.468662 72.961665 -31.603368 -3.174688 -7.484397 -2.478461 -0.227653 0.702177 -0.115366 2.635917 -66.544768 14.480646 41.061386 65.594492 34.175814 -17.909484 -9.784583 4.023470 -0.189831 -0.897992 -0.101471
-214.696827 57.651540 -71.075149 159.649076 -7.987311 0.457124 3.562606 7.207574 1.067845 0.160848 0.349516 0.009953 0.279243 0.609088 0.020615 3.174701 6.845533 0.384630 0.859817 17.429066 -1.042116 1.912018 -3.439080 -2.187629 -0.354000 5.556447 -2.403108 -3.267129 -8.235279 -8.660676 -59.307921 -86.945001 91.796902 -0.172215 11.238591 -26.476307 -2.200827 6.195218 2.386575 12.898121 -2.881461 3.430684 125.754634 -84.583064 -158.309320 -1.972075 7.257094 13.768706 -17.480718 -63.757168 8.967273 -31.451371 72.963661 -31.583170 -3.163700 -7.484987 -2.486040 -0.234814 0.704321 -0.118496 2.630007 -66.536631 14.493746 41.058783 65.590351 34.177006 -17.903516 -9.796239 4.029336 -0.171232 -0.878843 -0.092778
-214.695540 57.648728 -71.073522 159.632390 -8.013416 0.454975 3.583868 7.233819 1.070032 0.161176 0.350257 0.009918 0.281574 0.612891 0.016033 3.185063 6.857928 0.384535 0.858150 17.356131 -1.056726 1.923331 -3.579659 -2.217244 -0.355002 5.538051 -2.398067 -3.246281 -8.234371 -8.674647 -59.309123 -86.956184 91.781619 -0.195952 11.234227 -26.490035 -2.220763 6.176367 2.396195 12.896738 -2.885008 3.436276 125.862482 -84.561772 -158.451492 -1.988042 7.258591 13.740511 -17.480718 -63.731467 8.975988 -31.446219 72.960268 -31.579105 -3.158405 -7.480587 -2.486612 -0.240848 0.705578 -0.122815 2.639993 -66.517564 14.498393 41.060135 65.605860 34.185349 -17.870327 -9.815567 4.044501 -0.223040 -0.875082 -0.106721
-214.697268 57.645628 -71.070023 159.615447 -8.024538 0.459683 3.602998 7.245591 1.063691 0.161589 0.351064 0.009927 0.282717 0.616760 0.009946 3.195394 6.872879 0.385798 0.858031 17.282613 -1.071858 1.939609 -3.717872 -2.249987 -0.352949 5.519021 -2.391148 -3.224475 -8.238287 -8.692233 -59.211959 -86.999501 91.701721 -0.231544 11.220627 -26.512100 -2.236179 6.153131 2.403937 12.894559 -2.888352 3.444795 125.984462 -84.539823 -158.609137 -1.998982 7.262573 13.738260 -17.475000 -63.722078 8.978922 -31.421703 72.955635 -31.553531 -3.160294 -7.478260 -2.495423 -0.229312 0.713832 -0.117390 2.654654 -66.508598 14.497613 41.043954 65.619673 34.173595 -17.889093 -9.844585 4.064705 -0.214950 -0.858331 -0.119875
-214.698001 57.643210 -71.069496 159.606880 -8.056187 0.457520 3.609783 7.276020 1.060963 0.162292 0.353133 0.009858 0.284809 0.616970 0.013860 3.200442 6.895661 0.379893 0.865459 17.208121 -1.087386 1.958189 -3.845458 -2.283622 -0.343103 5.492675 -2.386625 -3.208041 -8.239614 -8.708105 -59.219142 -87.006132 91.699372 -0.165233 11.207492 -26.442600 -2.246166 6.120038 2.396075 12.888979 -2.891636 3.474926 126.021932 -84.519192 -158.670819 -2.014154 7.270582 13.740543 -17.473803 -63.690975 8.977987 -31.434500 72.953751 -31.565819 -3.154388 -7.483495 -2.500467 -0.228609 0.719734 -0.116056 2.640832 -66.479771 14.515366 41.040412 65.631285 34.170230 -17.872014 -9.861879 4.073923 -0.224127 -0.856469 -0.123485
-214.699636 57.641136 -71.069747 159.600674 -8.091686 0.455811 3.617307 7.300684 1.052350 0.163614 0.356544 0.009710 0.283622 0.624326 0.023730 3.207766 6.913794 0.374838 0.869832 17.142859 -1.101385 1.978976 -3.958063 -2.316336 -0.313968 5.465654 -2.383362 -3.225055 -8.232649 -8.714574 -59.244754 -87.000002 91.713247 -0.125052 11.207404 -26.406157 -2.252070 6.099366 2.401462 12.890410 -2.903697 3.497880 126.172911 -84.478600 -158.866217 -2.009209 7.297221 13.760632 -17.469037 -63.656639 8.969469 -31.422405 72.956769 -31.555709 -3.154464 -7.489145 -2.498808 -0.237992 0.725257 -0.120152 2.627394 -66.446547 14.530763 41.032568 65.642060 34.161739 -17.855110 -9.874663 4.081704 -0.223860 -0.858046 -0.123626
-214.701929 57.639218 -71.068572 159.595855 -8.118958 0.449626 3.623402 7.321044 1.056736 0.163996 0.357922 0.009668 0.285445 0.627782 0.021795 3.209017 6.928995 0.373231 0.879166 17.087654 -1.113509 2.002459 -4.054335 -2.347973 -0.307160 5.449297 -2.377180 -3.211446 -8.232069 -8.734071 -59.329263 -87.019301 91.802583 -0.120680 11.211152 -26.391108 -2.251677 6.083589 2.404970 12.888420 -2.904454 3.506087 126.285540 -84.468476 -158.990428 -2.065978 7.296559 13.753675 -17.472907 -63.628395 8.969077 -31.439879 72.950916 -31.564761 -3.148922 -7.491480 -2.508334 -0.232979 0.728872 -0.119717 2.609822 -66.420274 14.553003 41.018962 65.648504 34.146884 -17.853732 -9.882916 4.091281 -0.225852 -0.859410 -0.124647
